# xmcd
#
# Track frame offsets:
#	150
#	15770
#	32510
#	48695
#	65140
#	86367
#	103070
#	121840
#	141660
#	161152
#	179777
#	196070
#	203072
#	217750
#	235857
#	256267
#	280535
#	296507
#
# Disc length: 4440 seconds
#
# Revision: 3
# Processed by: cddbd v1.5.2PL0 Copyright (c) Steve Scherf et al.
# Submitted via: audiograbber 1.83.01
#
DISCID=01115612
DTITLE=Brad Paisley - Mud On The Tires
DYEAR=2003
DGENRE=Country
TTITLE0=Mud On The Tires
TTITLE1=Celebrity
TTITLE2=Ain't Nothin' Like
TTITLE3=Little Moments
TTITLE4=That's Love
TTITLE5=Somebody Knows You Now
TTITLE6=Famous People
TTITLE7=Hold Me In Your Arms (And Let Me Fall)
TTITLE8=Whiskey Lullaby (featuring Alison Krauss)
TTITLE9=The Best Thing That I Had Goin'
TTITLE10=The Cigar Song
TTITLE11=Make A Mistake
TTITLE12=Make A Mistake With Me (Instrumental)
TTITLE13=Is It Raining At Your House
TTITLE14=Spaghetti Western Swing (Instrumental featuring Redd Volkaert)
TTITLE15=Farther Along
TTITLE16=The Kung Pow Buckaroo Buffet
TTITLE17=### Computer Data ###
EXTD=Arista Nashville  82876-54393-2\n
EXTT0=
EXTT1=
EXTT2=
EXTT3=
EXTT4=
EXTT5=
EXTT6=
EXTT7=
EXTT8=
EXTT9=
EXTT10=
EXTT11=
EXTT12=
EXTT13=
EXTT14=
EXTT15=
EXTT16=
EXTT17=
PLAYORDER=
